<svg width="1146" height="78" viewBox="0 0 1146 78" fill="none" xmlns="http://www.w3.org/2000/svg">
<rect width="1146" height="78" rx="39" fill="#710796"/>
<path d="M64.45 47.25H49.25L46.45 55H41.65L54.25 20.35H59.5L72.05 55H67.25L64.45 47.25ZM63.15 43.55L56.85 25.95L50.55 43.55H63.15ZM75.8414 41.2C75.8414 38.4 76.4081 35.95 77.5414 33.85C78.6747 31.7167 80.2247 30.0667 82.1914 28.9C84.1914 27.7333 86.4247 27.15 88.8914 27.15C91.0247 27.15 93.0081 27.65 94.8414 28.65C96.6747 29.6167 98.0747 30.9 99.0414 32.5V18H103.641V55H99.0414V49.85C98.1414 51.4833 96.8081 52.8333 95.0414 53.9C93.2747 54.9333 91.2081 55.45 88.8414 55.45C86.4081 55.45 84.1914 54.85 82.1914 53.65C80.2247 52.45 78.6747 50.7667 77.5414 48.6C76.4081 46.4333 75.8414 43.9667 75.8414 41.2ZM99.0414 41.25C99.0414 39.1833 98.6247 37.3833 97.7914 35.85C96.9581 34.3167 95.8247 33.15 94.3914 32.35C92.9914 31.5167 91.4414 31.1 89.7414 31.1C88.0414 31.1 86.4914 31.5 85.0914 32.3C83.6914 33.1 82.5747 34.2667 81.7414 35.8C80.9081 37.3333 80.4914 39.1333 80.4914 41.2C80.4914 43.3 80.9081 45.1333 81.7414 46.7C82.5747 48.2333 83.6914 49.4167 85.0914 50.25C86.4914 51.05 88.0414 51.45 89.7414 51.45C91.4414 51.45 92.9914 51.05 94.3914 50.25C95.8247 49.4167 96.9581 48.2333 97.7914 46.7C98.6247 45.1333 99.0414 43.3167 99.0414 41.25ZM109.63 41.2C109.63 38.4 110.197 35.95 111.33 33.85C112.464 31.7167 114.014 30.0667 115.98 28.9C117.98 27.7333 120.214 27.15 122.68 27.15C124.814 27.15 126.797 27.65 128.63 28.65C130.464 29.6167 131.864 30.9 132.83 32.5V18H137.43V55H132.83V49.85C131.93 51.4833 130.597 52.8333 128.83 53.9C127.064 54.9333 124.997 55.45 122.63 55.45C120.197 55.45 117.98 54.85 115.98 53.65C114.014 52.45 112.464 50.7667 111.33 48.6C110.197 46.4333 109.63 43.9667 109.63 41.2ZM132.83 41.25C132.83 39.1833 132.414 37.3833 131.58 35.85C130.747 34.3167 129.614 33.15 128.18 32.35C126.78 31.5167 125.23 31.1 123.53 31.1C121.83 31.1 120.28 31.5 118.88 32.3C117.48 33.1 116.364 34.2667 115.53 35.8C114.697 37.3333 114.28 39.1333 114.28 41.2C114.28 43.3 114.697 45.1333 115.53 46.7C116.364 48.2333 117.48 49.4167 118.88 50.25C120.28 51.05 121.83 51.45 123.53 51.45C125.23 51.45 126.78 51.05 128.18 50.25C129.614 49.4167 130.747 48.2333 131.58 46.7C132.414 45.1333 132.83 43.3167 132.83 41.25ZM156.75 41.2C156.75 38.4 157.316 35.95 158.45 33.85C159.583 31.7167 161.133 30.0667 163.1 28.9C165.1 27.7333 167.316 27.15 169.75 27.15C172.15 27.15 174.233 27.6667 176 28.7C177.766 29.7333 179.083 31.0333 179.95 32.6V27.6H184.55V55H179.95V49.9C179.05 51.5 177.7 52.8333 175.9 53.9C174.133 54.9333 172.066 55.45 169.7 55.45C167.266 55.45 165.066 54.85 163.1 53.65C161.133 52.45 159.583 50.7667 158.45 48.6C157.316 46.4333 156.75 43.9667 156.75 41.2ZM179.95 41.25C179.95 39.1833 179.533 37.3833 178.7 35.85C177.866 34.3167 176.733 33.15 175.3 32.35C173.9 31.5167 172.35 31.1 170.65 31.1C168.95 31.1 167.4 31.5 166 32.3C164.6 33.1 163.483 34.2667 162.65 35.8C161.816 37.3333 161.4 39.1333 161.4 41.2C161.4 43.3 161.816 45.1333 162.65 46.7C163.483 48.2333 164.6 49.4167 166 50.25C167.4 51.05 168.95 51.45 170.65 51.45C172.35 51.45 173.9 51.05 175.3 50.25C176.733 49.4167 177.866 48.2333 178.7 46.7C179.533 45.1333 179.95 43.3167 179.95 41.25ZM203.869 41.25C203.869 38.4167 204.435 35.95 205.569 33.85C206.702 31.7167 208.269 30.0667 210.269 28.9C212.302 27.7333 214.619 27.15 217.219 27.15C220.585 27.15 223.352 27.9667 225.519 29.6C227.719 31.2333 229.169 33.5 229.869 36.4H224.969C224.502 34.7333 223.585 33.4167 222.219 32.45C220.885 31.4833 219.219 31 217.219 31C214.619 31 212.519 31.9 210.919 33.7C209.319 35.4667 208.519 37.9833 208.519 41.25C208.519 44.55 209.319 47.1 210.919 48.9C212.519 50.7 214.619 51.6 217.219 51.6C219.219 51.6 220.885 51.1333 222.219 50.2C223.552 49.2667 224.469 47.9333 224.969 46.2H229.869C229.135 49 227.669 51.25 225.469 52.95C223.269 54.6167 220.519 55.45 217.219 55.45C214.619 55.45 212.302 54.8667 210.269 53.7C208.269 52.5333 206.702 50.8833 205.569 48.75C204.435 46.6167 203.869 44.1167 203.869 41.25ZM247.89 55.45C245.323 55.45 242.99 54.8667 240.89 53.7C238.823 52.5333 237.19 50.8833 235.99 48.75C234.823 46.5833 234.24 44.0833 234.24 41.25C234.24 38.45 234.84 35.9833 236.04 33.85C237.273 31.6833 238.94 30.0333 241.04 28.9C243.14 27.7333 245.49 27.15 248.09 27.15C250.69 27.15 253.04 27.7333 255.14 28.9C257.24 30.0333 258.89 31.6667 260.09 33.8C261.323 35.9333 261.94 38.4167 261.94 41.25C261.94 44.0833 261.307 46.5833 260.04 48.75C258.807 50.8833 257.123 52.5333 254.99 53.7C252.857 54.8667 250.49 55.45 247.89 55.45ZM247.89 51.45C249.523 51.45 251.057 51.0667 252.49 50.3C253.923 49.5333 255.073 48.3833 255.94 46.85C256.84 45.3167 257.29 43.45 257.29 41.25C257.29 39.05 256.857 37.1833 255.99 35.65C255.123 34.1167 253.99 32.9833 252.59 32.25C251.19 31.4833 249.673 31.1 248.04 31.1C246.373 31.1 244.84 31.4833 243.44 32.25C242.073 32.9833 240.973 34.1167 240.14 35.65C239.307 37.1833 238.89 39.05 238.89 41.25C238.89 43.4833 239.29 45.3667 240.09 46.9C240.923 48.4333 242.023 49.5833 243.39 50.35C244.757 51.0833 246.257 51.45 247.89 51.45ZM300.872 27.1C303.006 27.1 304.906 27.55 306.572 28.45C308.239 29.3167 309.556 30.6333 310.522 32.4C311.489 34.1667 311.972 36.3167 311.972 38.85V55H307.472V39.5C307.472 36.7667 306.789 34.6833 305.422 33.25C304.089 31.7833 302.272 31.05 299.972 31.05C297.606 31.05 295.722 31.8167 294.322 33.35C292.922 34.85 292.222 37.0333 292.222 39.9V55H287.722V39.5C287.722 36.7667 287.039 34.6833 285.672 33.25C284.339 31.7833 282.522 31.05 280.222 31.05C277.856 31.05 275.972 31.8167 274.572 33.35C273.172 34.85 272.472 37.0333 272.472 39.9V55H267.922V27.6H272.472V31.55C273.372 30.1167 274.572 29.0167 276.072 28.25C277.606 27.4833 279.289 27.1 281.122 27.1C283.422 27.1 285.456 27.6167 287.222 28.65C288.989 29.6833 290.306 31.2 291.172 33.2C291.939 31.2667 293.206 29.7667 294.972 28.7C296.739 27.6333 298.706 27.1 300.872 27.1ZM352.386 27.1C354.519 27.1 356.419 27.55 358.086 28.45C359.753 29.3167 361.069 30.6333 362.036 32.4C363.003 34.1667 363.486 36.3167 363.486 38.85V55H358.986V39.5C358.986 36.7667 358.303 34.6833 356.936 33.25C355.603 31.7833 353.786 31.05 351.486 31.05C349.119 31.05 347.236 31.8167 345.836 33.35C344.436 34.85 343.736 37.0333 343.736 39.9V55H339.236V39.5C339.236 36.7667 338.553 34.6833 337.186 33.25C335.853 31.7833 334.036 31.05 331.736 31.05C329.369 31.05 327.486 31.8167 326.086 33.35C324.686 34.85 323.986 37.0333 323.986 39.9V55H319.436V27.6H323.986V31.55C324.886 30.1167 326.086 29.0167 327.586 28.25C329.119 27.4833 330.803 27.1 332.636 27.1C334.936 27.1 336.969 27.6167 338.736 28.65C340.503 29.6833 341.819 31.2 342.686 33.2C343.453 31.2667 344.719 29.7667 346.486 28.7C348.253 27.6333 350.219 27.1 352.386 27.1ZM395.95 40.25C395.95 41.1167 395.9 42.0333 395.8 43H373.9C374.066 45.7 374.983 47.8167 376.65 49.35C378.35 50.85 380.4 51.6 382.8 51.6C384.766 51.6 386.4 51.15 387.7 50.25C389.033 49.3167 389.966 48.0833 390.5 46.55H395.4C394.666 49.1833 393.2 51.3333 391 53C388.8 54.6333 386.066 55.45 382.8 55.45C380.2 55.45 377.866 54.8667 375.8 53.7C373.766 52.5333 372.166 50.8833 371 48.75C369.833 46.5833 369.25 44.0833 369.25 41.25C369.25 38.4167 369.816 35.9333 370.95 33.8C372.083 31.6667 373.666 30.0333 375.7 28.9C377.766 27.7333 380.133 27.15 382.8 27.15C385.4 27.15 387.7 27.7167 389.7 28.85C391.7 29.9833 393.233 31.55 394.3 33.55C395.4 35.5167 395.95 37.75 395.95 40.25ZM391.25 39.3C391.25 37.5667 390.866 36.0833 390.1 34.85C389.333 33.5833 388.283 32.6333 386.95 32C385.65 31.3333 384.2 31 382.6 31C380.3 31 378.333 31.7333 376.7 33.2C375.1 34.6667 374.183 36.7 373.95 39.3H391.25ZM415.305 27.1C418.639 27.1 421.339 28.1167 423.405 30.15C425.472 32.15 426.505 35.05 426.505 38.85V55H422.005V39.5C422.005 36.7667 421.322 34.6833 419.955 33.25C418.589 31.7833 416.722 31.05 414.355 31.05C411.955 31.05 410.039 31.8 408.605 33.3C407.205 34.8 406.505 36.9833 406.505 39.85V55H401.955V27.6H406.505V31.5C407.405 30.1 408.622 29.0167 410.155 28.25C411.722 27.4833 413.439 27.1 415.305 27.1ZM439.488 31.35V47.5C439.488 48.8333 439.771 49.7833 440.338 50.35C440.905 50.8833 441.888 51.15 443.288 51.15H446.638V55H442.538C440.005 55 438.105 54.4167 436.838 53.25C435.571 52.0833 434.938 50.1667 434.938 47.5V31.35H431.388V27.6H434.938V20.7H439.488V27.6H446.638V31.35H439.488ZM453.601 55.3C452.734 55.3 452.001 55 451.401 54.4C450.801 53.8 450.501 53.0667 450.501 52.2C450.501 51.3333 450.801 50.6 451.401 50C452.001 49.4 452.734 49.1 453.601 49.1C454.434 49.1 455.134 49.4 455.701 50C456.301 50.6 456.601 51.3333 456.601 52.2C456.601 53.0667 456.301 53.8 455.701 54.4C455.134 55 454.434 55.3 453.601 55.3ZM464.099 55.3C463.232 55.3 462.499 55 461.899 54.4C461.299 53.8 460.999 53.0667 460.999 52.2C460.999 51.3333 461.299 50.6 461.899 50C462.499 49.4 463.232 49.1 464.099 49.1C464.932 49.1 465.632 49.4 466.199 50C466.799 50.6 467.099 51.3333 467.099 52.2C467.099 53.0667 466.799 53.8 466.199 54.4C465.632 55 464.932 55.3 464.099 55.3ZM474.597 55.3C473.73 55.3 472.997 55 472.397 54.4C471.797 53.8 471.497 53.0667 471.497 52.2C471.497 51.3333 471.797 50.6 472.397 50C472.997 49.4 473.73 49.1 474.597 49.1C475.43 49.1 476.13 49.4 476.697 50C477.297 50.6 477.597 51.3333 477.597 52.2C477.597 53.0667 477.297 53.8 476.697 54.4C476.13 55 475.43 55.3 474.597 55.3Z" fill="#A97DAA"/>
</svg>
