<svg width="954" height="400" viewBox="0 0 954 400" fill="none" xmlns="http://www.w3.org/2000/svg">
<path fill-rule="evenodd" clip-rule="evenodd" d="M200 0C89.5 0 0 91.7638 0 205.059C0 295.797 57.25 372.438 136.75 399.608C146.75 401.403 150.5 395.251 150.5 389.868C150.5 384.998 150.25 368.849 150.25 351.676C100 361.16 87 339.116 83 327.581C80.75 321.686 71 303.487 62.5 298.617C55.5 294.772 45.5 285.288 62.25 285.032C78 284.775 89.25 299.898 93 306.05C111 337.065 139.75 328.35 151.25 322.968C153 309.639 158.25 300.667 164 295.541C119.5 290.414 73 272.728 73 194.293C73 171.993 80.75 153.538 93.5 139.184C91.5 134.057 84.5 113.039 95.5 84.8431C95.5 84.8431 112.25 79.4603 150.5 105.862C166.5 101.248 183.5 98.9409 200.5 98.9409C217.5 98.9409 234.5 101.248 250.5 105.862C288.75 79.204 305.5 84.8431 305.5 84.8431C316.5 113.039 309.5 134.057 307.5 139.184C320.25 153.538 328 171.737 328 194.293C328 272.984 281.25 290.414 236.75 295.541C244 301.949 250.25 314.253 250.25 333.477C250.25 360.903 250 382.947 250 389.868C250 395.251 253.75 401.659 263.75 399.608C303.453 385.865 337.953 359.702 362.394 324.802C386.836 289.903 399.988 248.023 400 205.059C400 91.7638 310.5 0 200 0Z" fill="#BD00FF"/>
<path d="M540.696 204.312H497.636C496.525 204.312 495.623 205.215 495.623 206.326V227.379C495.623 228.49 496.525 229.394 497.635 229.394H514.434V255.551C514.434 255.551 510.662 256.837 500.234 256.837C487.931 256.837 470.744 252.341 470.744 214.549C470.744 176.749 488.641 171.776 505.442 171.776C519.985 171.776 526.251 174.336 530.237 175.57C531.49 175.954 532.649 174.707 532.649 173.595L537.452 153.253C537.452 152.733 537.276 152.107 536.683 151.682C535.064 150.527 525.187 145 500.233 145C471.488 145 442 157.23 442 216.023C442 274.818 475.76 283.579 504.21 283.579C527.765 283.579 542.054 273.513 542.054 273.513C542.644 273.188 542.707 272.365 542.707 271.987V206.326C542.707 205.216 541.807 204.312 540.697 204.312H540.696ZM762.496 152.359C762.496 151.239 761.608 150.335 760.497 150.335H736.251C735.986 150.336 735.724 150.389 735.48 150.492C735.236 150.594 735.014 150.743 734.828 150.931C734.641 151.119 734.494 151.342 734.393 151.587C734.293 151.832 734.242 152.094 734.243 152.359L734.249 199.215H696.457V152.36C696.457 151.24 695.565 150.336 694.456 150.336H670.21C669.676 150.339 669.165 150.554 668.789 150.933C668.414 151.313 668.204 151.826 668.207 152.36V279.232C668.207 280.352 669.107 281.262 670.21 281.262H694.455C695.564 281.262 696.455 280.352 696.455 279.232V224.964H734.248L734.182 279.231C734.182 280.351 735.082 281.261 736.19 281.261H760.494C761.604 281.261 762.492 280.351 762.494 279.231V152.36L762.496 152.359ZM586.37 169.322C586.37 160.592 579.37 153.536 570.735 153.536C562.108 153.536 555.103 160.591 555.103 169.322C555.103 178.042 562.108 185.117 570.735 185.117C579.37 185.117 586.37 178.042 586.37 169.322V169.322ZM584.446 252.534V193.97C584.446 192.858 583.549 191.949 582.44 191.949H558.271C557.162 191.949 556.171 193.093 556.171 194.205V278.11C556.171 280.576 557.707 281.309 559.696 281.309H581.471C583.861 281.309 584.446 280.136 584.446 278.07V252.534V252.534ZM855.162 191.95H831.102C829.998 191.95 829.1 192.859 829.1 193.978V256.188C829.1 256.188 822.988 260.66 814.312 260.66C805.637 260.66 803.335 256.723 803.335 248.229V193.979C803.335 192.859 802.438 191.949 801.334 191.949H776.915C775.813 191.949 774.91 192.859 774.91 193.979V252.337C774.91 277.567 788.973 283.74 808.318 283.74C824.188 283.74 836.983 274.973 836.983 274.973C836.983 274.973 837.593 279.593 837.868 280.141C838.144 280.688 838.862 281.239 839.638 281.239L855.173 281.171C856.275 281.171 857.178 280.26 857.178 279.146L857.17 193.978C857.17 192.859 856.27 191.95 855.162 191.95V191.95ZM910.597 260.708C902.252 260.454 896.591 256.667 896.591 256.667V216.488C896.591 216.488 902.176 213.065 909.027 212.453C917.691 211.677 926.04 214.294 926.04 234.963C926.04 256.758 922.272 261.059 910.597 260.707V260.708ZM920.087 189.225C906.422 189.225 897.127 195.322 897.127 195.322V152.359C897.129 152.095 897.079 151.833 896.979 151.588C896.879 151.343 896.733 151.12 896.547 150.932C896.361 150.744 896.14 150.595 895.896 150.492C895.653 150.39 895.391 150.336 895.127 150.335H870.812C870.547 150.336 870.286 150.389 870.042 150.492C869.798 150.594 869.577 150.744 869.391 150.932C869.204 151.12 869.057 151.342 868.957 151.587C868.857 151.832 868.807 152.094 868.808 152.359V279.231C868.808 280.351 869.706 281.261 870.815 281.261H887.685C888.445 281.261 889.02 280.871 889.445 280.184C889.864 279.502 890.469 274.334 890.469 274.334C890.469 274.334 900.411 283.756 919.232 283.756C941.328 283.756 954 272.548 954 233.441C954 194.334 933.762 189.224 920.087 189.224V189.225ZM654.229 191.73H636.042L636.014 167.703C636.014 166.794 635.546 166.339 634.494 166.339H609.71C608.746 166.339 608.229 166.763 608.229 167.689V192.519C608.229 192.519 595.809 195.517 594.969 195.759C594.55 195.881 594.182 196.135 593.92 196.484C593.658 196.832 593.517 197.257 593.517 197.693V213.296C593.517 214.418 594.413 215.323 595.522 215.323H608.229V252.859C608.229 280.739 627.785 283.478 640.982 283.478C647.012 283.478 654.225 281.541 655.416 281.102C656.136 280.837 656.554 280.092 656.554 279.282L656.574 262.118C656.574 260.999 655.629 260.093 654.564 260.093C653.504 260.093 650.794 260.524 648.002 260.524C639.069 260.524 636.042 256.37 636.042 250.994L636.041 215.324H654.229C654.494 215.323 654.756 215.27 655.001 215.167C655.245 215.065 655.467 214.915 655.653 214.726C655.839 214.538 655.987 214.315 656.086 214.069C656.186 213.824 656.237 213.561 656.235 213.296V193.753C656.235 192.633 655.338 191.731 654.229 191.731V191.73Z" fill="#BD00FF"/>
</svg>
