<svg width="1327" height="233" viewBox="0 0 1327 233" fill="none" xmlns="http://www.w3.org/2000/svg">
<path d="M270 203.125H240V76.1719L150 130.58L60 76.1719V203.125H30V29.0179H48L150 90.6808L252 29.0179H270V203.125ZM270 0H30C13.35 0 0 12.9129 0 29.0179V203.125C0 210.821 3.1607 218.202 8.7868 223.644C14.4129 229.086 22.0435 232.143 30 232.143H270C277.956 232.143 285.587 229.086 291.213 223.644C296.839 218.202 300 210.821 300 203.125V29.0179C300 21.3218 296.839 13.941 291.213 8.49913C285.587 3.05723 277.956 0 270 0V0Z" fill="#BD00FF"/>
<path d="M353.6 134.712L363.68 104.112H374.408L359.648 144H347.408L332.72 104.112H343.52L353.6 134.712ZM385.182 99.36C383.406 99.36 381.918 98.808 380.718 97.704C379.566 96.552 378.99 95.136 378.99 93.456C378.99 91.776 379.566 90.384 380.718 89.28C381.918 88.128 383.406 87.552 385.182 87.552C386.958 87.552 388.422 88.128 389.574 89.28C390.774 90.384 391.374 91.776 391.374 93.456C391.374 95.136 390.774 96.552 389.574 97.704C388.422 98.808 386.958 99.36 385.182 99.36ZM390.15 104.112V144H380.07V104.112H390.15ZM415.373 144.648C412.109 144.648 409.181 144.072 406.589 142.92C403.997 141.72 401.933 140.112 400.397 138.096C398.909 136.08 398.093 133.848 397.949 131.4H408.101C408.293 132.936 409.037 134.208 410.333 135.216C411.677 136.224 413.333 136.728 415.301 136.728C417.221 136.728 418.709 136.344 419.765 135.576C420.869 134.808 421.421 133.824 421.421 132.624C421.421 131.328 420.749 130.368 419.405 129.744C418.109 129.072 416.021 128.352 413.141 127.584C410.165 126.864 407.717 126.12 405.797 125.352C403.925 124.584 402.293 123.408 400.901 121.824C399.557 120.24 398.885 118.104 398.885 115.416C398.885 113.208 399.509 111.192 400.757 109.368C402.053 107.544 403.877 106.104 406.229 105.048C408.629 103.992 411.437 103.464 414.653 103.464C419.405 103.464 423.197 104.664 426.029 107.064C428.861 109.416 430.421 112.608 430.709 116.64H421.061C420.917 115.056 420.245 113.808 419.045 112.896C417.893 111.936 416.333 111.456 414.365 111.456C412.541 111.456 411.125 111.792 410.117 112.464C409.157 113.136 408.677 114.072 408.677 115.272C408.677 116.616 409.349 117.648 410.693 118.368C412.037 119.04 414.125 119.736 416.957 120.456C419.837 121.176 422.213 121.92 424.085 122.688C425.957 123.456 427.565 124.656 428.909 126.288C430.301 127.872 431.021 129.984 431.069 132.624C431.069 134.928 430.421 136.992 429.125 138.816C427.877 140.64 426.053 142.08 423.653 143.136C421.301 144.144 418.541 144.648 415.373 144.648ZM461.807 103.536C464.831 103.536 467.519 104.208 469.871 105.552C472.223 106.848 474.047 108.792 475.343 111.384C476.687 113.928 477.359 117 477.359 120.6V144H467.279V121.968C467.279 118.8 466.487 116.376 464.903 114.696C463.319 112.968 461.159 112.104 458.423 112.104C455.639 112.104 453.431 112.968 451.799 114.696C450.215 116.376 449.423 118.8 449.423 121.968V144H439.343V90.72H449.423V109.08C450.719 107.352 452.447 106.008 454.607 105.048C456.767 104.04 459.167 103.536 461.807 103.536ZM484.353 123.912C484.353 119.88 485.145 116.304 486.729 113.184C488.361 110.064 490.545 107.664 493.281 105.984C496.065 104.304 499.161 103.464 502.569 103.464C505.545 103.464 508.137 104.064 510.345 105.264C512.601 106.464 514.401 107.976 515.745 109.8V104.112H525.897V144H515.745V138.168C514.449 140.04 512.649 141.6 510.345 142.848C508.089 144.048 505.473 144.648 502.497 144.648C499.137 144.648 496.065 143.784 493.281 142.056C490.545 140.328 488.361 137.904 486.729 134.784C485.145 131.616 484.353 127.992 484.353 123.912ZM515.745 124.056C515.745 121.608 515.265 119.52 514.305 117.792C513.345 116.016 512.049 114.672 510.417 113.76C508.785 112.8 507.033 112.32 505.161 112.32C503.289 112.32 501.561 112.776 499.977 113.688C498.393 114.6 497.097 115.944 496.089 117.72C495.129 119.448 494.649 121.512 494.649 123.912C494.649 126.312 495.129 128.424 496.089 130.248C497.097 132.024 498.393 133.392 499.977 134.352C501.609 135.312 503.337 135.792 505.161 135.792C507.033 135.792 508.785 135.336 510.417 134.424C512.049 133.464 513.345 132.12 514.305 130.392C515.265 128.616 515.745 126.504 515.745 124.056ZM557.845 103.536C562.597 103.536 566.437 105.048 569.365 108.072C572.293 111.048 573.757 115.224 573.757 120.6V144H563.677V121.968C563.677 118.8 562.885 116.376 561.301 114.696C559.717 112.968 557.557 112.104 554.821 112.104C552.037 112.104 549.829 112.968 548.197 114.696C546.613 116.376 545.821 118.8 545.821 121.968V144H535.741V104.112H545.821V109.08C547.165 107.352 548.869 106.008 550.933 105.048C553.045 104.04 555.349 103.536 557.845 103.536ZM606.959 144L593.423 127.008V144H583.343V90.72H593.423V121.032L606.815 104.112H619.919L602.351 124.128L620.063 144H606.959ZM641.014 103.464C643.99 103.464 646.606 104.064 648.862 105.264C651.118 106.416 652.894 107.928 654.19 109.8V104.112H664.342V144.288C664.342 147.984 663.598 151.272 662.11 154.152C660.622 157.08 658.39 159.384 655.414 161.064C652.438 162.792 648.838 163.656 644.614 163.656C638.95 163.656 634.294 162.336 630.646 159.696C627.046 157.056 625.006 153.456 624.526 148.896H634.534C635.062 150.72 636.19 152.16 637.918 153.216C639.694 154.32 641.83 154.872 644.326 154.872C647.254 154.872 649.63 153.984 651.454 152.208C653.278 150.48 654.19 147.84 654.19 144.288V138.096C652.894 139.968 651.094 141.528 648.79 142.776C646.534 144.024 643.942 144.648 641.014 144.648C637.654 144.648 634.582 143.784 631.798 142.056C629.014 140.328 626.806 137.904 625.174 134.784C623.59 131.616 622.798 127.992 622.798 123.912C622.798 119.88 623.59 116.304 625.174 113.184C626.806 110.064 628.99 107.664 631.726 105.984C634.51 104.304 637.606 103.464 641.014 103.464ZM654.19 124.056C654.19 121.608 653.71 119.52 652.75 117.792C651.79 116.016 650.494 114.672 648.862 113.76C647.23 112.8 645.478 112.32 643.606 112.32C641.734 112.32 640.006 112.776 638.422 113.688C636.838 114.6 635.542 115.944 634.534 117.72C633.574 119.448 633.094 121.512 633.094 123.912C633.094 126.312 633.574 128.424 634.534 130.248C635.542 132.024 636.838 133.392 638.422 134.352C640.054 135.312 641.782 135.792 643.606 135.792C645.478 135.792 647.23 135.336 648.862 134.424C650.494 133.464 651.79 132.12 652.75 130.392C653.71 128.616 654.19 126.504 654.19 124.056ZM691.899 144.648C688.059 144.648 684.603 143.808 681.531 142.128C678.459 140.4 676.035 137.976 674.259 134.856C672.531 131.736 671.667 128.136 671.667 124.056C671.667 119.976 672.555 116.376 674.331 113.256C676.155 110.136 678.627 107.736 681.747 106.056C684.867 104.328 688.347 103.464 692.187 103.464C696.027 103.464 699.507 104.328 702.627 106.056C705.747 107.736 708.195 110.136 709.971 113.256C711.795 116.376 712.707 119.976 712.707 124.056C712.707 128.136 711.771 131.736 709.899 134.856C708.075 137.976 705.579 140.4 702.411 142.128C699.291 143.808 695.787 144.648 691.899 144.648ZM691.899 135.864C693.723 135.864 695.427 135.432 697.011 134.568C698.643 133.656 699.939 132.312 700.899 130.536C701.859 128.76 702.339 126.6 702.339 124.056C702.339 120.264 701.331 117.36 699.315 115.344C697.347 113.28 694.923 112.248 692.043 112.248C689.163 112.248 686.739 113.28 684.771 115.344C682.851 117.36 681.891 120.264 681.891 124.056C681.891 127.848 682.827 130.776 684.699 132.84C686.619 134.856 689.019 135.864 691.899 135.864ZM757.181 123.192C757.181 124.632 757.085 125.928 756.893 127.08H727.733C727.973 129.96 728.981 132.216 730.757 133.848C732.533 135.48 734.717 136.296 737.309 136.296C741.053 136.296 743.717 134.688 745.301 131.472H756.173C755.021 135.312 752.813 138.48 749.549 140.976C746.285 143.424 742.277 144.648 737.525 144.648C733.685 144.648 730.229 143.808 727.157 142.128C724.133 140.4 721.757 137.976 720.029 134.856C718.349 131.736 717.509 128.136 717.509 124.056C717.509 119.928 718.349 116.304 720.029 113.184C721.709 110.064 724.061 107.664 727.085 105.984C730.109 104.304 733.589 103.464 737.525 103.464C741.317 103.464 744.701 104.28 747.677 105.912C750.701 107.544 753.029 109.872 754.661 112.896C756.341 115.872 757.181 119.304 757.181 123.192ZM746.741 120.312C746.693 117.72 745.757 115.656 743.933 114.12C742.109 112.536 739.877 111.744 737.237 111.744C734.741 111.744 732.629 112.512 730.901 114.048C729.221 115.536 728.189 117.624 727.805 120.312H746.741ZM774.618 90.72V144H764.538V90.72H774.618ZM782.201 100.8V91.512H799.553V144H789.185V100.8H782.201ZM808.287 100.8V91.512H825.639V144H815.271V100.8H808.287ZM875.125 96.768C880.693 96.768 885.517 97.8 889.597 99.864C893.677 101.928 896.797 104.832 898.957 108.576C901.165 112.32 902.269 116.64 902.269 121.536C902.269 125.472 901.573 129.192 900.181 132.696C898.837 136.2 896.869 139.032 894.277 141.192C891.685 143.352 888.613 144.432 885.061 144.432C882.565 144.432 880.549 143.928 879.013 142.92C877.477 141.864 876.493 140.376 876.061 138.456C874.669 140.328 872.869 141.816 870.661 142.92C868.453 143.976 866.125 144.504 863.677 144.504C860.029 144.504 857.173 143.424 855.109 141.264C853.045 139.056 852.013 136.056 852.013 132.264C852.013 128.664 852.757 125.304 854.245 122.184C855.733 119.064 857.797 116.568 860.437 114.696C863.077 112.776 866.053 111.816 869.365 111.816C873.493 111.816 876.325 113.256 877.861 116.136L878.509 112.392H886.933L883.549 131.832C883.405 132.744 883.333 133.584 883.333 134.352C883.333 135.504 883.573 136.368 884.053 136.944C884.533 137.52 885.349 137.808 886.501 137.808C888.229 137.808 889.669 136.992 890.821 135.36C892.021 133.728 892.909 131.688 893.485 129.24C894.109 126.792 894.421 124.344 894.421 121.896C894.421 116.088 892.645 111.6 889.093 108.432C885.541 105.216 880.525 103.608 874.045 103.608C868.525 103.608 863.533 104.952 859.069 107.64C854.605 110.28 851.101 113.904 848.557 118.512C846.061 123.072 844.813 128.16 844.813 133.776C844.813 139.728 846.565 144.312 850.069 147.528C853.621 150.744 858.637 152.352 865.117 152.352C869.773 152.352 873.877 151.512 877.429 149.832L878.869 156.456C874.309 158.376 869.245 159.336 863.677 159.336C858.301 159.336 853.597 158.304 849.565 156.24C845.533 154.224 842.413 151.344 840.205 147.6C837.997 143.856 836.893 139.512 836.893 134.568C836.893 127.512 838.525 121.104 841.789 115.344C845.101 109.584 849.661 105.048 855.469 101.736C861.325 98.424 867.877 96.768 875.125 96.768ZM866.845 137.016C868.573 137.016 870.157 136.512 871.597 135.504C873.037 134.496 874.165 133.152 874.981 131.472C875.845 129.792 876.277 127.992 876.277 126.072C876.277 124.056 875.725 122.424 874.621 121.176C873.517 119.928 871.981 119.304 870.013 119.304C868.237 119.304 866.677 119.856 865.333 120.96C863.989 122.016 862.933 123.408 862.165 125.136C861.445 126.864 861.085 128.688 861.085 130.608C861.085 132.576 861.565 134.136 862.525 135.288C863.485 136.44 864.925 137.016 866.845 137.016ZM928.03 103.464C931.006 103.464 933.622 104.064 935.878 105.264C938.134 106.416 939.91 107.928 941.206 109.8V104.112H951.358V144.288C951.358 147.984 950.614 151.272 949.126 154.152C947.638 157.08 945.406 159.384 942.43 161.064C939.454 162.792 935.854 163.656 931.63 163.656C925.966 163.656 921.31 162.336 917.662 159.696C914.062 157.056 912.022 153.456 911.542 148.896H921.55C922.078 150.72 923.206 152.16 924.934 153.216C926.71 154.32 928.846 154.872 931.342 154.872C934.27 154.872 936.646 153.984 938.47 152.208C940.294 150.48 941.206 147.84 941.206 144.288V138.096C939.91 139.968 938.11 141.528 935.806 142.776C933.55 144.024 930.958 144.648 928.03 144.648C924.67 144.648 921.598 143.784 918.814 142.056C916.03 140.328 913.822 137.904 912.189 134.784C910.605 131.616 909.813 127.992 909.813 123.912C909.813 119.88 910.605 116.304 912.189 113.184C913.822 110.064 916.006 107.664 918.742 105.984C921.526 104.304 924.622 103.464 928.03 103.464ZM941.206 124.056C941.206 121.608 940.726 119.52 939.766 117.792C938.806 116.016 937.51 114.672 935.878 113.76C934.246 112.8 932.494 112.32 930.622 112.32C928.75 112.32 927.022 112.776 925.438 113.688C923.854 114.6 922.558 115.944 921.55 117.72C920.59 119.448 920.11 121.512 920.11 123.912C920.11 126.312 920.59 128.424 921.55 130.248C922.558 132.024 923.854 133.392 925.438 134.352C927.07 135.312 928.798 135.792 930.622 135.792C932.494 135.792 934.246 135.336 935.878 134.424C937.51 133.464 938.806 132.12 939.766 130.392C940.726 128.616 941.206 126.504 941.206 124.056ZM1010.74 103.536C1015.63 103.536 1019.57 105.048 1022.55 108.072C1025.57 111.048 1027.08 115.224 1027.08 120.6V144H1017V121.968C1017 118.848 1016.21 116.472 1014.63 114.84C1013.04 113.16 1010.88 112.32 1008.15 112.32C1005.41 112.32 1003.23 113.16 1001.59 114.84C1000.01 116.472 999.218 118.848 999.218 121.968V144H989.138V121.968C989.138 118.848 988.346 116.472 986.762 114.84C985.178 113.16 983.018 112.32 980.282 112.32C977.498 112.32 975.29 113.16 973.658 114.84C972.074 116.472 971.282 118.848 971.282 121.968V144H961.202V104.112H971.282V108.936C972.578 107.256 974.234 105.936 976.25 104.976C978.314 104.016 980.57 103.536 983.018 103.536C986.138 103.536 988.922 104.208 991.37 105.552C993.818 106.848 995.714 108.72 997.058 111.168C998.354 108.864 1000.23 107.016 1002.67 105.624C1005.17 104.232 1007.86 103.536 1010.74 103.536ZM1034.06 123.912C1034.06 119.88 1034.85 116.304 1036.43 113.184C1038.06 110.064 1040.25 107.664 1042.98 105.984C1045.77 104.304 1048.86 103.464 1052.27 103.464C1055.25 103.464 1057.84 104.064 1060.05 105.264C1062.3 106.464 1064.1 107.976 1065.45 109.8V104.112H1075.6V144H1065.45V138.168C1064.15 140.04 1062.35 141.6 1060.05 142.848C1057.79 144.048 1055.18 144.648 1052.2 144.648C1048.84 144.648 1045.77 143.784 1042.98 142.056C1040.25 140.328 1038.06 137.904 1036.43 134.784C1034.85 131.616 1034.06 127.992 1034.06 123.912ZM1065.45 124.056C1065.45 121.608 1064.97 119.52 1064.01 117.792C1063.05 116.016 1061.75 114.672 1060.12 113.76C1058.49 112.8 1056.74 112.32 1054.86 112.32C1052.99 112.32 1051.26 112.776 1049.68 113.688C1048.1 114.6 1046.8 115.944 1045.79 117.72C1044.83 119.448 1044.35 121.512 1044.35 123.912C1044.35 126.312 1044.83 128.424 1045.79 130.248C1046.8 132.024 1048.1 133.392 1049.68 134.352C1051.31 135.312 1053.04 135.792 1054.86 135.792C1056.74 135.792 1058.49 135.336 1060.12 134.424C1061.75 133.464 1063.05 132.12 1064.01 130.392C1064.97 128.616 1065.45 126.504 1065.45 124.056ZM1090.56 99.36C1088.78 99.36 1087.29 98.808 1086.09 97.704C1084.94 96.552 1084.36 95.136 1084.36 93.456C1084.36 91.776 1084.94 90.384 1086.09 89.28C1087.29 88.128 1088.78 87.552 1090.56 87.552C1092.33 87.552 1093.8 88.128 1094.95 89.28C1096.15 90.384 1096.75 91.776 1096.75 93.456C1096.75 95.136 1096.15 96.552 1094.95 97.704C1093.8 98.808 1092.33 99.36 1090.56 99.36ZM1095.52 104.112V144H1085.44V104.112H1095.52ZM1115.56 90.72V144H1105.48V90.72H1115.56ZM1129.99 144.504C1128.16 144.504 1126.65 143.952 1125.45 142.848C1124.3 141.696 1123.72 140.28 1123.72 138.6C1123.72 136.92 1124.3 135.528 1125.45 134.424C1126.65 133.272 1128.16 132.696 1129.99 132.696C1131.76 132.696 1133.23 133.272 1134.38 134.424C1135.53 135.528 1136.11 136.92 1136.11 138.6C1136.11 140.28 1135.53 141.696 1134.38 142.848C1133.23 143.952 1131.76 144.504 1129.99 144.504ZM1141.63 124.056C1141.63 119.928 1142.47 116.328 1144.15 113.256C1145.83 110.136 1148.16 107.736 1151.14 106.056C1154.11 104.328 1157.52 103.464 1161.36 103.464C1166.31 103.464 1170.39 104.712 1173.6 107.208C1176.87 109.656 1179.05 113.112 1180.15 117.576H1169.28C1168.71 115.848 1167.72 114.504 1166.33 113.544C1164.99 112.536 1163.31 112.032 1161.29 112.032C1158.41 112.032 1156.13 113.088 1154.45 115.2C1152.77 117.264 1151.93 120.216 1151.93 124.056C1151.93 127.848 1152.77 130.8 1154.45 132.912C1156.13 134.976 1158.41 136.008 1161.29 136.008C1165.37 136.008 1168.03 134.184 1169.28 130.536H1180.15C1179.05 134.856 1176.87 138.288 1173.6 140.832C1170.34 143.376 1166.26 144.648 1161.36 144.648C1157.52 144.648 1154.11 143.808 1151.14 142.128C1148.16 140.4 1145.83 138 1144.15 134.928C1142.47 131.808 1141.63 128.184 1141.63 124.056ZM1205.25 144.648C1201.41 144.648 1197.95 143.808 1194.88 142.128C1191.81 140.4 1189.39 137.976 1187.61 134.856C1185.88 131.736 1185.02 128.136 1185.02 124.056C1185.02 119.976 1185.91 116.376 1187.68 113.256C1189.51 110.136 1191.98 107.736 1195.1 106.056C1198.22 104.328 1201.7 103.464 1205.54 103.464C1209.38 103.464 1212.86 104.328 1215.98 106.056C1219.1 107.736 1221.55 110.136 1223.32 113.256C1225.15 116.376 1226.06 119.976 1226.06 124.056C1226.06 128.136 1225.12 131.736 1223.25 134.856C1221.43 137.976 1218.93 140.4 1215.76 142.128C1212.64 143.808 1209.14 144.648 1205.25 144.648ZM1205.25 135.864C1207.07 135.864 1208.78 135.432 1210.36 134.568C1211.99 133.656 1213.29 132.312 1214.25 130.536C1215.21 128.76 1215.69 126.6 1215.69 124.056C1215.69 120.264 1214.68 117.36 1212.67 115.344C1210.7 113.28 1208.27 112.248 1205.39 112.248C1202.51 112.248 1200.09 113.28 1198.12 115.344C1196.2 117.36 1195.24 120.264 1195.24 124.056C1195.24 127.848 1196.18 130.776 1198.05 132.84C1199.97 134.856 1202.37 135.864 1205.25 135.864ZM1282.99 103.536C1287.88 103.536 1291.82 105.048 1294.8 108.072C1297.82 111.048 1299.33 115.224 1299.33 120.6V144H1289.25V121.968C1289.25 118.848 1288.46 116.472 1286.88 114.84C1285.29 113.16 1283.13 112.32 1280.4 112.32C1277.66 112.32 1275.48 113.16 1273.84 114.84C1272.26 116.472 1271.47 118.848 1271.47 121.968V144H1261.39V121.968C1261.39 118.848 1260.6 116.472 1259.01 114.84C1257.43 113.16 1255.27 112.32 1252.53 112.32C1249.75 112.32 1247.54 113.16 1245.91 114.84C1244.32 116.472 1243.53 118.848 1243.53 121.968V144H1233.45V104.112H1243.53V108.936C1244.83 107.256 1246.48 105.936 1248.5 104.976C1250.56 104.016 1252.82 103.536 1255.27 103.536C1258.39 103.536 1261.17 104.208 1263.62 105.552C1266.07 106.848 1267.96 108.72 1269.31 111.168C1270.6 108.864 1272.48 107.016 1274.92 105.624C1277.42 104.232 1280.11 103.536 1282.99 103.536Z" fill="#BD00FF"/>
</svg>
