<svg width="1144" height="400" viewBox="0 0 1144 400" fill="none" xmlns="http://www.w3.org/2000/svg">
<path d="M266.667 200C266.667 181.597 260.156 165.885 247.135 152.865C234.115 139.844 218.403 133.333 200 133.333C181.597 133.333 165.885 139.844 152.865 152.865C139.844 165.885 133.333 181.597 133.333 200C133.333 218.403 139.844 234.115 152.865 247.135C165.885 260.156 181.597 266.667 200 266.667C218.403 266.667 234.115 260.156 247.135 247.135C260.156 234.115 266.667 218.403 266.667 200ZM302.604 200C302.604 228.472 292.622 252.691 272.656 272.656C252.691 292.622 228.472 302.604 200 302.604C171.528 302.604 147.309 292.622 127.344 272.656C107.378 252.691 97.3958 228.472 97.3958 200C97.3958 171.528 107.378 147.309 127.344 127.344C147.309 107.378 171.528 97.3958 200 97.3958C228.472 97.3958 252.691 107.378 272.656 127.344C292.622 147.309 302.604 171.528 302.604 200ZM330.729 93.2292C330.729 99.8264 328.385 105.469 323.698 110.156C319.01 114.844 313.368 117.187 306.771 117.187C300.174 117.187 294.531 114.844 289.844 110.156C285.156 105.469 282.812 99.8264 282.812 93.2292C282.812 86.6319 285.156 80.9896 289.844 76.3021C294.531 71.6146 300.174 69.2708 306.771 69.2708C313.368 69.2708 319.01 71.6146 323.698 76.3021C328.385 80.9896 330.729 86.6319 330.729 93.2292ZM200 35.9375C198.785 35.9375 192.144 35.8941 180.078 35.8073C168.012 35.7205 158.854 35.7205 152.604 35.8073C146.354 35.8941 137.977 36.1545 127.474 36.5885C116.97 37.0226 108.03 37.8906 100.651 39.1927C93.2726 40.4948 87.066 42.1007 82.0312 44.0104C73.3507 47.4826 65.7118 52.5174 59.1146 59.1146C52.5174 65.7118 47.4826 73.3507 44.0104 82.0312C42.1007 87.066 40.4948 93.2726 39.1927 100.651C37.8906 108.03 37.0226 116.97 36.5885 127.474C36.1545 137.977 35.8941 146.354 35.8073 152.604C35.7205 158.854 35.7205 168.012 35.8073 180.078C35.8941 192.144 35.9375 198.785 35.9375 200C35.9375 201.215 35.8941 207.856 35.8073 219.922C35.7205 231.988 35.7205 241.146 35.8073 247.396C35.8941 253.646 36.1545 262.023 36.5885 272.526C37.0226 283.03 37.8906 291.97 39.1927 299.349C40.4948 306.727 42.1007 312.934 44.0104 317.969C47.4826 326.649 52.5174 334.288 59.1146 340.885C65.7118 347.483 73.3507 352.517 82.0312 355.99C87.066 357.899 93.2726 359.505 100.651 360.807C108.03 362.109 116.97 362.977 127.474 363.411C137.977 363.845 146.354 364.106 152.604 364.193C158.854 364.279 168.012 364.279 180.078 364.193C192.144 364.106 198.785 364.062 200 364.062C201.215 364.062 207.856 364.106 219.922 364.193C231.988 364.279 241.146 364.279 247.396 364.193C253.646 364.106 262.023 363.845 272.526 363.411C283.03 362.977 291.97 362.109 299.349 360.807C306.727 359.505 312.934 357.899 317.969 355.99C326.649 352.517 334.288 347.483 340.885 340.885C347.483 334.288 352.517 326.649 355.99 317.969C357.899 312.934 359.505 306.727 360.807 299.349C362.109 291.97 362.977 283.03 363.411 272.526C363.845 262.023 364.106 253.646 364.193 247.396C364.279 241.146 364.279 231.988 364.193 219.922C364.106 207.856 364.062 201.215 364.062 200C364.062 198.785 364.106 192.144 364.193 180.078C364.279 168.012 364.279 158.854 364.193 152.604C364.106 146.354 363.845 137.977 363.411 127.474C362.977 116.97 362.109 108.03 360.807 100.651C359.505 93.2726 357.899 87.066 355.99 82.0312C352.517 73.3507 347.483 65.7118 340.885 59.1146C334.288 52.5174 326.649 47.4826 317.969 44.0104C312.934 42.1007 306.727 40.4948 299.349 39.1927C291.97 37.8906 283.03 37.0226 272.526 36.5885C262.023 36.1545 253.646 35.8941 247.396 35.8073C241.146 35.7205 231.988 35.7205 219.922 35.8073C207.856 35.8941 201.215 35.9375 200 35.9375ZM400 200C400 239.757 399.566 267.274 398.698 282.552C396.962 318.663 386.198 346.615 366.406 366.406C346.615 386.198 318.663 396.962 282.552 398.698C267.274 399.566 239.757 400 200 400C160.243 400 132.726 399.566 117.448 398.698C81.3368 396.962 53.3854 386.198 33.5937 366.406C13.8021 346.615 3.03819 318.663 1.30208 282.552C0.434028 267.274 0 239.757 0 200C0 160.243 0.434028 132.726 1.30208 117.448C3.03819 81.3368 13.8021 53.3854 33.5937 33.5937C53.3854 13.8021 81.3368 3.03819 117.448 1.30208C132.726 0.434028 160.243 0 200 0C239.757 0 267.274 0.434028 282.552 1.30208C318.663 3.03819 346.615 13.8021 366.406 33.5937C386.198 53.3854 396.962 81.3368 398.698 117.448C399.566 132.726 400 160.243 400 200Z" fill="#BD00FF"/>
<path d="M481.088 124.233C466.805 130.216 451.105 147.097 446.147 168.302C439.866 195.16 465.998 206.521 468.143 202.801C470.666 198.425 463.461 196.946 461.977 183.009C460.06 165.008 468.429 144.896 478.962 136.07C480.917 134.43 480.825 136.713 480.825 140.933C480.825 148.482 480.408 216.245 480.408 230.387C480.408 249.522 479.618 255.565 478.197 261.537C476.761 267.587 474.447 271.676 476.199 273.251C478.156 275.012 486.515 270.822 491.354 264.069C497.156 255.97 499.188 246.241 499.553 235.679C499.993 222.946 499.974 202.738 499.993 191.213C500.01 180.643 500.171 149.692 499.807 131.084C499.718 126.518 487.061 121.73 481.088 124.233" fill="#BD00FF"/>
<path d="M988.236 213.788C987.776 223.737 985.573 231.513 982.84 236.998C977.549 247.617 966.571 250.913 961.908 235.65C959.368 227.329 959.249 213.433 961.075 201.821C962.934 189.994 968.126 181.061 976.722 181.866C985.201 182.663 989.17 193.588 988.236 213.79V213.788ZM845.297 275.511C845.182 292.041 842.58 306.533 837.002 310.744C829.089 316.713 818.454 312.234 820.656 300.173C822.604 289.499 831.821 278.598 845.32 265.279C845.32 265.279 845.348 268.317 845.297 275.511ZM843.137 213.691C842.653 222.753 840.304 231.854 837.741 236.998C832.45 247.617 821.392 250.936 816.809 235.65C813.675 225.204 814.426 211.688 815.975 203.171C817.987 192.12 822.866 181.867 831.622 181.867C840.137 181.867 844.337 191.209 843.137 213.691ZM760.333 213.555C759.814 223.149 757.942 231.171 754.938 236.998C749.502 247.544 738.748 250.888 734.007 235.65C730.587 224.662 731.751 209.68 733.173 201.586C735.283 189.575 740.569 181.061 748.82 181.867C757.295 182.696 761.415 193.588 760.333 213.555V213.555ZM1139.8 224.763C1137.73 224.763 1136.78 226.898 1136 230.491C1133.29 242.993 1130.43 245.813 1126.76 245.813C1122.65 245.813 1118.96 239.625 1118.01 227.236C1117.26 217.493 1117.38 199.559 1118.34 181.718C1118.53 178.053 1117.52 174.426 1107.69 170.854C1103.46 169.318 1097.31 167.055 1094.25 174.446C1085.6 195.329 1082.21 211.907 1081.41 218.639C1081.37 218.988 1080.95 219.06 1080.87 218.245C1080.36 212.852 1079.23 203.049 1079.09 182.456C1079.06 178.438 1078.21 175.019 1073.77 172.219C1070.9 170.401 1062.16 167.188 1059.01 171.012C1056.29 174.137 1053.13 182.551 1049.85 192.526C1047.18 200.633 1045.33 206.116 1045.33 206.116C1045.33 206.116 1045.36 184.243 1045.39 175.946C1045.41 172.816 1043.26 171.773 1042.61 171.585C1039.7 170.74 1033.96 169.327 1031.52 169.327C1028.51 169.327 1027.78 171.006 1027.78 173.456C1027.78 173.778 1027.3 202.253 1027.3 222.165C1027.3 223.03 1027.3 223.974 1027.31 224.977C1025.65 234.129 1020.25 246.552 1014.39 246.552C1008.51 246.552 1005.74 241.359 1005.74 217.621C1005.74 203.772 1006.16 197.75 1006.36 187.734C1006.48 181.964 1006.71 177.535 1006.7 176.53C1006.65 173.447 1001.32 171.892 998.843 171.318C996.351 170.74 994.185 170.514 992.494 170.611C990.1 170.748 988.406 172.316 988.406 174.476C988.406 175.636 988.42 177.837 988.42 177.837C985.337 172.991 980.378 169.62 977.079 168.642C968.192 166.004 958.92 168.342 951.925 178.129C946.366 185.904 943.015 194.713 941.696 207.367C940.732 216.618 941.047 225.999 942.761 233.932C940.69 242.885 936.847 246.552 932.637 246.552C926.526 246.552 922.096 236.579 922.61 219.328C922.949 207.982 925.22 200.019 927.701 188.499C928.76 183.588 927.9 181.018 925.744 178.554C923.765 176.295 919.55 175.139 913.494 176.558C909.179 177.571 903.009 178.661 897.364 179.498C897.364 179.498 897.705 178.138 897.984 175.742C899.453 163.178 885.799 164.196 881.441 168.209C878.842 170.606 877.072 173.432 876.4 178.512C875.334 186.576 881.91 190.379 881.91 190.379C879.754 200.256 874.465 213.157 869.004 222.485C866.08 227.482 863.843 231.186 860.954 235.122C860.86 219.326 860.963 203.529 861.263 187.735C861.382 181.966 861.613 177.654 861.601 176.647C861.568 174.394 860.251 173.541 857.513 172.464C855.09 171.509 852.227 170.85 849.256 170.618C845.507 170.328 843.249 172.315 843.309 174.666C843.32 175.111 843.32 177.837 843.32 177.837C840.237 172.991 835.278 169.62 831.979 168.642C823.092 166.004 813.82 168.342 806.826 178.129C801.268 185.904 797.629 196.817 796.596 207.271C795.637 217.012 795.813 225.29 797.123 232.266C795.71 239.249 791.647 246.553 787.055 246.553C781.181 246.553 777.84 241.359 777.84 217.621C777.84 203.772 778.256 197.75 778.461 187.734C778.58 181.966 778.808 177.535 778.796 176.53C778.752 173.447 773.421 171.894 770.94 171.318C768.345 170.716 766.104 170.498 764.383 170.625C762.113 170.793 760.516 172.826 760.516 174.342V177.837C757.433 172.991 752.474 169.62 749.175 168.642C740.289 166.004 731.068 168.38 724.022 178.129C719.428 184.485 715.708 191.532 713.794 207.131C713.24 211.639 712.996 215.862 713.028 219.807C711.196 231.012 703.103 243.927 696.484 243.927C692.611 243.927 688.921 236.413 688.921 220.401C688.921 199.073 690.241 168.705 690.466 165.78C690.466 165.78 698.829 165.637 700.448 165.618C704.62 165.572 708.398 165.671 713.955 165.386C716.742 165.245 719.427 155.241 716.55 154.004C715.246 153.443 706.032 152.954 702.379 152.876C699.309 152.808 690.758 152.173 690.758 152.173C690.758 152.173 691.525 132.017 691.704 129.888C691.855 128.112 689.558 127.199 688.243 126.645C685.041 125.292 682.176 124.642 678.782 123.942C674.089 122.974 671.962 123.922 671.547 127.88C670.92 133.888 670.596 151.488 670.596 151.488C667.154 151.488 655.393 150.816 651.951 150.816C648.751 150.816 645.298 164.575 649.722 164.745C654.811 164.941 663.68 165.114 669.559 165.289C669.559 165.289 669.296 196.157 669.296 205.689C669.296 206.701 669.302 207.678 669.307 208.626C666.071 225.49 654.674 234.601 654.674 234.601C657.121 223.443 652.122 215.064 643.116 207.971C639.798 205.358 633.248 200.41 625.919 194.988C625.919 194.988 630.163 190.804 633.928 182.388C636.594 176.424 636.711 169.604 630.163 168.098C619.346 165.61 610.428 173.555 607.767 182.037C605.705 188.607 606.805 193.481 610.843 198.546C611.137 198.916 611.459 199.295 611.787 199.675C609.346 204.381 605.991 210.718 603.15 215.631C595.264 229.276 589.307 240.066 584.805 240.066C581.207 240.066 581.255 229.109 581.255 218.851C581.255 210.008 581.908 196.712 582.43 182.949C582.603 178.396 580.325 175.802 576.511 173.454C574.192 172.026 569.244 169.221 566.378 169.221C562.088 169.221 549.712 169.804 538.02 203.629C536.546 207.892 533.651 215.66 533.651 215.66L533.901 174.985C533.901 174.03 533.392 173.109 532.229 172.479C530.259 171.408 524.996 169.221 520.316 169.221C518.088 169.221 516.974 170.257 516.974 172.324L516.566 235.961C516.566 240.797 516.692 246.438 517.171 248.904C517.646 251.374 518.419 253.383 519.373 254.578C520.329 255.772 521.432 256.684 523.252 257.058C524.946 257.407 534.221 258.598 534.703 255.054C535.28 250.805 535.304 246.211 540.173 229.075C547.756 202.396 557.641 189.38 562.289 184.756C563.103 183.949 564.03 183.9 563.984 185.222C563.788 191.071 563.089 205.689 562.62 218.103C561.361 251.333 567.405 257.492 576.044 257.492C582.653 257.492 591.969 250.925 601.955 234.303C607.519 225.04 613.058 215.761 618.571 206.467C621.596 209.268 624.994 212.283 628.387 215.504C636.276 222.991 638.865 230.106 637.147 236.854C635.834 242.013 630.884 247.329 622.075 242.163C619.507 240.655 618.411 239.489 615.83 237.789C614.443 236.877 612.325 236.604 611.055 237.561C607.758 240.046 605.871 243.21 604.794 247.126C603.746 250.936 607.562 252.95 611.519 254.712C614.924 256.229 622.246 257.603 626.913 257.758C645.104 258.367 659.677 248.976 669.821 224.75C671.637 245.672 679.364 257.511 692.791 257.511C701.768 257.511 710.768 245.908 714.705 234.493C715.834 239.146 717.507 243.192 719.667 246.614C730.013 263.007 750.083 259.48 760.165 245.559C763.282 241.258 763.757 239.713 763.757 239.713C765.228 252.856 775.812 257.448 781.872 257.448C788.66 257.448 795.667 254.239 800.579 243.181C801.155 244.382 801.783 245.529 802.47 246.614C812.815 263.007 832.887 259.48 842.969 245.559C843.444 244.905 843.857 244.315 844.217 243.782L844.512 252.415L835.23 260.929C819.672 275.189 807.854 286.003 806.984 298.599C805.877 314.659 818.895 320.629 828.758 321.411C839.213 322.24 848.183 316.46 853.687 308.37C858.533 301.249 861.705 285.922 861.471 270.786C861.379 264.724 861.225 257.017 861.106 248.755C866.568 242.413 872.721 234.396 878.387 225.014C884.561 214.789 891.178 201.057 894.566 190.37C894.566 190.37 900.315 190.42 906.451 190.018C908.413 189.89 908.978 190.292 908.614 191.729C908.177 193.468 900.862 221.677 907.538 240.469C912.106 253.334 922.405 257.471 928.511 257.471C935.66 257.471 942.497 252.074 946.161 244.059C946.604 244.952 947.065 245.816 947.569 246.616C957.915 263.008 977.916 259.458 988.068 245.559C990.36 242.423 991.66 239.713 991.66 239.713C993.838 253.316 1004.42 257.518 1010.48 257.518C1016.79 257.518 1022.78 254.93 1027.64 243.43C1027.84 248.494 1028.16 252.634 1028.67 253.938C1028.97 254.738 1030.77 255.739 1032.07 256.223C1037.85 258.364 1043.73 257.352 1045.91 256.912C1047.42 256.606 1048.6 255.395 1048.76 252.269C1049.18 244.059 1048.92 230.266 1051.41 220.013C1055.59 202.81 1059.49 196.137 1061.34 192.833C1062.37 190.981 1063.54 190.676 1063.58 192.635C1063.67 196.6 1063.86 208.239 1065.48 223.88C1066.67 235.38 1068.26 242.179 1069.48 244.333C1072.96 250.485 1077.26 250.776 1080.76 250.776C1082.99 250.776 1087.65 250.161 1087.24 246.245C1087.03 244.337 1087.39 232.541 1091.51 215.592C1094.2 204.523 1098.68 194.523 1100.3 190.866C1100.9 189.518 1101.17 190.58 1101.16 190.788C1100.82 198.41 1100.06 223.342 1103.16 236.979C1107.37 255.451 1119.55 257.518 1123.79 257.518C1132.85 257.518 1140.26 250.627 1142.76 232.496C1143.36 228.131 1142.47 224.763 1139.8 224.763Z" fill="#BD00FF"/>
</svg>
