<svg width="600" height="150" viewBox="0 0 600 150" fill="none" xmlns="http://www.w3.org/2000/svg">
<g clip-path="url(#clip0)">
<path d="M236.786 87.8566L269.893 128.571H243.75L214.286 91.1789V128.571H192.857V21.4289H214.286V84.4289L241.5 53.5711H268.821L236.786 87.8566V87.8566ZM151.071 51.4289C146.379 51.4992 141.774 52.7055 137.651 54.9446C133.527 57.1837 130.007 60.3888 127.393 64.2855V53.5711H107.143V128.571H128.571V93.5355C128.29 90.9925 128.535 88.4188 129.291 85.9746C130.047 83.5304 131.298 81.268 132.967 79.3283C134.635 77.3885 136.685 75.8129 138.988 74.6995C141.292 73.5861 143.8 72.9588 146.357 72.8566C158.786 72.8566 160.714 85.0711 160.714 93.5355V128.571H182.143V88.8211C182.143 65.25 174.321 51.4289 151.5 51.4289H151.071V51.4289ZM342.857 92.7855C342.939 94.3559 342.939 95.9297 342.857 97.5H286.607V98.25C287.52 102.718 289.995 106.714 293.589 109.522C297.182 112.33 301.658 113.765 306.214 113.571C309.829 113.728 313.438 113.155 316.825 111.884C320.213 110.614 323.309 108.674 325.929 106.179L340.179 116.893C335.662 121.502 330.23 125.113 324.232 127.494C318.235 129.874 311.804 130.972 305.357 130.714C300.017 131.052 294.667 130.24 289.668 128.332C284.669 126.425 280.138 123.467 276.38 119.658C272.622 115.85 269.726 111.279 267.886 106.255C266.046 101.231 265.305 95.8703 265.714 90.5356C265.605 85.2692 266.581 80.0367 268.582 75.1642C270.583 70.2917 273.567 65.8836 277.346 62.2146C281.126 58.5457 285.621 55.6945 290.55 53.8389C295.48 51.9832 300.739 51.1629 306 51.4289C326.143 51.4289 342.857 65.6789 342.857 92.7855ZM322.929 83.5711C322.85 81.4489 322.34 79.3649 321.43 77.4462C320.519 75.5274 319.228 73.8142 317.634 72.4107C316.04 71.0073 314.177 69.9431 312.159 69.283C310.14 68.6228 308.008 68.3806 305.893 68.5711C296.471 67.5527 287.939 74.1891 286.607 83.5711H322.929ZM21.4289 21.4289H0V128.571H64.2855V107.145H21.4289V21.4289ZM407.143 21.4289H428.571V128.571H408.321V121.071C405.75 124.239 402.473 126.761 398.752 128.436C395.031 130.11 390.97 130.891 386.893 130.714C381.913 130.587 377.012 129.442 372.49 127.35C367.969 125.258 363.923 122.263 360.601 118.55C357.28 114.837 354.752 110.484 353.175 105.759C351.598 101.033 351.003 96.0348 351.429 91.0711C350.923 86.1004 351.457 81.0788 352.998 76.3258C354.539 71.5728 357.052 67.1926 360.377 63.4638C363.703 59.735 367.768 56.7393 372.315 54.6674C376.861 52.5954 381.79 51.4925 386.786 51.4289C390.507 51.2659 394.223 51.845 397.718 53.1327C401.213 54.4203 404.417 56.3907 407.143 58.9289V21.4289V21.4289ZM408.75 91.0711C409.087 88.597 408.889 86.0794 408.171 83.6882C407.452 81.2969 406.229 79.0875 404.584 77.209C402.939 75.3305 400.911 73.8266 398.635 72.7986C396.36 71.7706 393.89 71.2426 391.393 71.25C381.143 71.9941 373.376 80.809 373.929 91.0711C373.376 101.333 381.143 110.149 391.393 110.893C393.89 110.901 396.36 110.373 398.636 109.345C400.911 108.317 402.94 106.813 404.585 104.934C406.23 103.055 407.453 100.846 408.171 98.4544C408.89 96.063 409.087 93.5453 408.75 91.0711V91.0711ZM85.7145 19.2855C82.2686 19.3344 78.9696 20.6889 76.4837 23.0757C73.9978 25.4624 72.5101 28.7035 72.3211 32.1445C72.3211 39.5402 78.3176 45.5367 85.7145 45.5367C93.1113 45.5367 99.1055 39.5391 99.1055 32.1445C98.9162 28.7039 97.4285 25.4633 94.9429 23.0768C92.4573 20.6903 89.1587 19.3358 85.7133 19.2867L85.7145 19.2855ZM75 128.571H96.4289V53.5711H75V128.571ZM600 10.7145V139.286C600 142.127 598.871 144.852 596.862 146.862C594.852 148.871 592.127 150 589.286 150H460.714C457.873 150 455.148 148.871 453.138 146.862C451.129 144.852 450 142.127 450 139.286V10.7145C450 7.8728 451.129 5.14754 453.138 3.13819C455.148 1.12884 457.873 0 460.714 0L589.286 0C592.127 0 594.852 1.12884 596.862 3.13819C598.871 5.14754 600 7.8728 600 10.7145V10.7145ZM492.857 53.5711H471.429V128.571H492.857V53.5711ZM495.536 32.1434C495.536 24.7465 489.539 18.75 482.143 18.75C474.746 18.75 468.75 24.7465 468.75 32.1434C468.75 39.5391 474.746 45.5355 482.143 45.5355C489.539 45.5355 495.536 39.5391 495.536 32.1434V32.1434ZM578.571 88.8211C578.571 65.25 570.75 51.4289 547.929 51.4289C543.164 51.4293 538.473 52.6023 534.268 54.8445C530.064 57.0866 526.476 60.329 523.821 64.2855V53.5711H503.571V128.571H525V93.5355C524.719 90.9925 524.964 88.4188 525.72 85.9746C526.476 83.5304 527.727 81.268 529.396 79.3283C531.064 77.3885 533.114 75.8129 535.417 74.6995C537.721 73.5861 540.229 72.9588 542.786 72.8566C555.214 72.8566 557.143 85.0711 557.143 93.5355V128.571H578.571V88.8211Z" fill="#BD00FF"/>
</g>
<defs>
<clipPath id="clip0">
<rect width="600" height="150" fill="white"/>
</clipPath>
</defs>
</svg>
